<svg xmlns="http://www.w3.org/2000/svg" width="174.17000000000002" height="35" viewBox="0 0 174.17000000000002 35"><rect class="svg__rect" x="0" y="0" width="100.1" height="35" fill="#E90000"/><rect class="svg__rect" x="98.1" y="0" width="76.07000000000001" height="35" fill="#666666"/><path class="svg__text" d="M15.00 22L13.46 22L16.68 13.47L18.01 13.47L21.24 22L19.69 22L18.99 20.01L15.69 20.01L15.00 22ZM17.34 15.28L16.10 18.82L18.58 18.82L17.34 15.28ZM26.67 22L25.19 22L25.19 13.47L26.67 13.47L30.49 19.54L30.49 13.47L31.96 13.47L31.96 22L30.48 22L26.67 15.95L26.67 22ZM36.45 18.13L36.45 18.13L36.45 17.46Q36.45 15.53 37.38 14.44Q38.31 13.35 39.96 13.35L39.96 13.35Q41.39 13.35 42.23 14.05Q43.06 14.76 43.23 16.08L43.23 16.08L41.78 16.08Q41.53 14.54 39.99 14.54L39.99 14.54Q39.00 14.54 38.48 15.26Q37.96 15.98 37.94 17.37L37.94 17.37L37.94 18.02Q37.94 19.40 38.52 20.17Q39.11 20.93 40.14 20.93L40.14 20.93Q41.28 20.93 41.76 20.42L41.76 20.42L41.76 18.75L40.00 18.75L40.00 17.62L43.24 17.62L43.24 20.89Q42.78 21.50 41.96 21.81Q41.14 22.12 40.09 22.12L40.09 22.12Q39.02 22.12 38.19 21.63Q37.37 21.14 36.92 20.24Q36.47 19.33 36.45 18.13ZM47.72 19.16L47.72 19.16L47.72 13.47L49.20 13.47L49.20 19.18Q49.20 20.03 49.63 20.48Q50.06 20.93 50.91 20.93L50.91 20.93Q52.62 20.93 52.62 19.13L52.62 19.13L52.62 13.47L54.10 13.47L54.10 19.17Q54.10 20.53 53.23 21.32Q52.36 22.12 50.91 22.12L50.91 22.12Q49.44 22.12 48.58 21.33Q47.72 20.55 47.72 19.16ZM64.02 22L58.67 22L58.67 13.47L60.15 13.47L60.15 20.82L64.02 20.82L64.02 22ZM68.93 22L67.39 22L70.61 13.47L71.94 13.47L75.17 22L73.62 22L72.92 20.01L69.62 20.01L68.93 22ZM71.27 15.28L70.03 18.82L72.51 18.82L71.27 15.28ZM80.60 22L79.12 22L79.12 13.47L82.12 13.47Q83.60 13.47 84.40 14.13Q85.20 14.79 85.20 16.05L85.20 16.05Q85.20 16.90 84.79 17.48Q84.38 18.06 83.64 18.37L83.64 18.37L85.56 21.92L85.56 22L83.97 22L82.26 18.71L80.60 18.71L80.60 22ZM80.60 14.66L80.60 17.52L82.13 17.52Q82.88 17.52 83.30 17.15Q83.72 16.77 83.72 16.11L83.72 16.11Q83.72 15.43 83.33 15.05Q82.94 14.68 82.17 14.66L82.17 14.66L80.60 14.66Z" fill="#FFFFFF"/><path class="svg__text" d="M113.08 15.44L111.52 15.44L111.52 13.60L115.46 13.60L115.46 22L113.08 22L113.08 15.44ZM124.56 20.39L120.12 20.39L120.12 18.84L123.88 13.60L126.34 13.60L122.93 18.51L124.63 18.51L124.63 17.08L126.87 17.08L126.87 18.51L128.12 18.51L128.12 20.39L126.87 20.39L126.87 22L124.56 22L124.56 20.39ZM132.00 20.75L132.00 20.75Q132.00 20.15 132.39 19.78Q132.78 19.41 133.37 19.41L133.37 19.41Q133.97 19.41 134.35 19.78Q134.74 20.15 134.74 20.75L134.74 20.75Q134.74 21.34 134.35 21.72Q133.96 22.11 133.37 22.11L133.37 22.11Q132.79 22.11 132.39 21.72Q132.00 21.34 132.00 20.75ZM140.19 15.44L138.63 15.44L138.63 13.60L142.56 13.60L142.56 22L140.19 22L140.19 15.44ZM147.22 20.75L147.22 20.75Q147.22 20.15 147.61 19.78Q148.00 19.41 148.59 19.41L148.59 19.41Q149.19 19.41 149.57 19.78Q149.96 20.15 149.96 20.75L149.96 20.75Q149.96 21.34 149.57 21.72Q149.18 22.11 148.59 22.11L148.59 22.11Q148.01 22.11 147.62 21.72Q147.22 21.34 147.22 20.75ZM154.19 17.80L154.19 17.80Q154.19 16.45 154.66 15.46Q155.13 14.46 155.97 13.95Q156.81 13.43 157.89 13.43L157.89 13.43Q158.96 13.43 159.80 13.95Q160.64 14.46 161.11 15.46Q161.59 16.45 161.59 17.80L161.59 17.80Q161.59 19.15 161.11 20.15Q160.64 21.14 159.80 21.65Q158.96 22.17 157.89 22.17L157.89 22.17Q156.81 22.17 155.97 21.65Q155.13 21.14 154.66 20.15Q154.19 19.16 154.19 17.80ZM156.57 17.80L156.57 17.80Q156.57 19.06 156.93 19.64Q157.28 20.22 157.89 20.22L157.89 20.22Q158.49 20.22 158.85 19.64Q159.20 19.06 159.20 17.80L159.20 17.80Q159.20 16.54 158.85 15.96Q158.49 15.38 157.89 15.38L157.89 15.38Q157.28 15.38 156.93 15.96Q156.57 16.54 156.57 17.80Z" fill="#FFFFFF" x="111.1"/></svg>