<svg xmlns="http://www.w3.org/2000/svg" width="261.25" height="35" viewBox="0 0 261.25 35"><rect class="svg__rect" x="0" y="0" width="161.71" height="35" fill="#FFFFFF"/><rect class="svg__rect" x="159.71" y="0" width="101.53999999999999" height="35" fill="#8FC965"/><path class="svg__text" d="M13.95 18.00L13.95 18.00L13.95 17.52Q13.95 16.28 14.39 15.32Q14.83 14.37 15.64 13.86Q16.44 13.35 17.49 13.35Q18.53 13.35 19.34 13.85Q20.14 14.35 20.58 15.29Q21.02 16.23 21.03 17.48L21.03 17.48L21.03 17.96Q21.03 19.21 20.59 20.16Q20.16 21.10 19.35 21.61Q18.55 22.12 17.50 22.12L17.50 22.12Q16.46 22.12 15.65 21.61Q14.84 21.10 14.40 20.17Q13.95 19.23 13.95 18.00ZM15.43 17.46L15.43 17.96Q15.43 19.36 15.98 20.13Q16.53 20.90 17.50 20.90L17.50 20.90Q18.48 20.90 19.01 20.15Q19.54 19.40 19.54 17.96L19.54 17.96L19.54 17.51Q19.54 16.09 19.01 15.34Q18.47 14.58 17.49 14.58L17.49 14.58Q16.53 14.58 15.98 15.33Q15.44 16.09 15.43 17.46L15.43 17.46ZM26.97 22L25.49 22L25.49 13.47L28.75 13.47Q30.18 13.47 31.02 14.21Q31.87 14.96 31.87 16.18L31.87 16.18Q31.87 17.44 31.04 18.13Q30.22 18.83 28.74 18.83L28.74 18.83L26.97 18.83L26.97 22ZM26.97 14.66L26.97 17.64L28.75 17.64Q29.55 17.64 29.96 17.27Q30.38 16.90 30.38 16.19L30.38 16.19Q30.38 15.50 29.96 15.09Q29.53 14.68 28.80 14.66L28.80 14.66L26.97 14.66ZM41.73 22L36.15 22L36.15 13.47L41.69 13.47L41.69 14.66L37.63 14.66L37.63 17.02L41.14 17.02L41.14 18.19L37.63 18.19L37.63 20.82L41.73 20.82L41.73 22ZM47.40 22L45.92 22L45.92 13.47L47.40 13.47L51.22 19.54L51.22 13.47L52.69 13.47L52.69 22L51.21 22L47.40 15.95L47.40 22ZM57.00 19.42L57.00 19.42L58.48 19.42Q58.48 20.15 58.96 20.55Q59.44 20.95 60.34 20.95L60.34 20.95Q61.11 20.95 61.50 20.63Q61.89 20.32 61.89 19.80L61.89 19.80Q61.89 19.24 61.49 18.94Q61.10 18.63 60.07 18.32Q59.04 18.01 58.43 17.63L58.43 17.63Q57.26 16.90 57.26 15.72L57.26 15.72Q57.26 14.69 58.10 14.02Q58.94 13.35 60.28 13.35L60.28 13.35Q61.17 13.35 61.87 13.68Q62.57 14.01 62.97 14.61Q63.37 15.22 63.37 15.96L63.37 15.96L61.89 15.96Q61.89 15.29 61.47 14.91Q61.05 14.54 60.27 14.54L60.27 14.54Q59.55 14.54 59.14 14.85Q58.74 15.16 58.74 15.71L58.74 15.71Q58.74 16.18 59.18 16.50Q59.61 16.81 60.61 17.10Q61.60 17.40 62.21 17.78Q62.81 18.16 63.09 18.65Q63.37 19.13 63.37 19.79L63.37 19.79Q63.37 20.86 62.55 21.49Q61.74 22.12 60.34 22.12L60.34 22.12Q59.41 22.12 58.63 21.77Q57.86 21.43 57.43 20.83Q57.00 20.22 57.00 19.42ZM69.34 14.66L66.71 14.66L66.71 13.47L73.47 13.47L73.47 14.66L70.81 14.66L70.81 22L69.34 22L69.34 14.66ZM78.71 22L77.23 22L77.23 13.47L80.23 13.47Q81.71 13.47 82.51 14.13Q83.31 14.79 83.31 16.05L83.31 16.05Q83.31 16.90 82.90 17.48Q82.48 18.06 81.75 18.37L81.75 18.37L83.66 21.92L83.66 22L82.07 22L80.36 18.71L78.71 18.71L78.71 22ZM78.71 14.66L78.71 17.52L80.23 17.52Q80.98 17.52 81.41 17.15Q81.83 16.77 81.83 16.11L81.83 16.11Q81.83 15.43 81.44 15.05Q81.05 14.68 80.28 14.66L80.28 14.66L78.71 14.66ZM93.28 22L87.71 22L87.71 13.47L93.24 13.47L93.24 14.66L89.19 14.66L89.19 17.02L92.69 17.02L92.69 18.19L89.19 18.19L89.19 20.82L93.28 20.82L93.28 22ZM103.06 22L97.48 22L97.48 13.47L103.02 13.47L103.02 14.66L98.96 14.66L98.96 17.02L102.47 17.02L102.47 18.19L98.96 18.19L98.96 20.82L103.06 20.82L103.06 22ZM108.93 14.66L106.30 14.66L106.30 13.47L113.06 13.47L113.06 14.66L110.40 14.66L110.40 22L108.93 22L108.93 14.66ZM118.30 22L116.82 22L116.82 13.47L118.74 13.47L121.20 20.01L123.66 13.47L125.57 13.47L125.57 22L124.10 22L124.10 19.19L124.24 15.43L121.72 22L120.66 22L118.15 15.43L118.30 19.19L118.30 22ZM131.09 22L129.55 22L132.78 13.47L134.11 13.47L137.33 22L135.79 22L135.09 20.01L131.79 20.01L131.09 22ZM133.44 15.28L132.20 18.82L134.67 18.82L133.44 15.28ZM142.77 22L141.29 22L141.29 13.47L144.55 13.47Q145.98 13.47 146.82 14.21Q147.66 14.96 147.66 16.18L147.66 16.18Q147.66 17.44 146.84 18.13Q146.02 18.83 144.54 18.83L144.54 18.83L142.77 18.83L142.77 22ZM142.77 14.66L142.77 17.64L144.55 17.64Q145.34 17.64 145.76 17.27Q146.18 16.90 146.18 16.19L146.18 16.19Q146.18 15.50 145.75 15.09Q145.33 14.68 144.59 14.66L144.59 14.66L142.77 14.66Z" fill="#000000"/><path class="svg__text" d="M180.28 22L173.90 22L173.90 13.60L176.28 13.60L176.28 20.11L180.28 20.11L180.28 22ZM191.45 22L184.70 22L184.70 13.60L191.29 13.60L191.29 15.44L187.06 15.44L187.06 16.85L190.79 16.85L190.79 18.63L187.06 18.63L187.06 20.17L191.45 20.17L191.45 22ZM197.67 22L195.24 22L198.95 13.60L201.30 13.60L205.01 22L202.54 22L201.88 20.37L198.33 20.37L197.67 22ZM200.11 15.93L199.02 18.61L201.19 18.61L200.11 15.93ZM211.54 22L209.17 22L209.17 13.60L215.76 13.60L215.76 15.44L211.54 15.44L211.54 17.28L215.25 17.28L215.25 19.12L211.54 19.12L211.54 22ZM226.74 22L220.35 22L220.35 13.60L222.73 13.60L222.73 20.11L226.74 20.11L226.74 22ZM237.90 22L231.16 22L231.16 13.60L237.75 13.60L237.75 15.44L233.51 15.44L233.51 16.85L237.24 16.85L237.24 18.63L233.51 18.63L233.51 20.17L237.90 20.17L237.90 22ZM244.50 15.48L241.91 15.48L241.91 13.60L249.44 13.60L249.44 15.48L246.87 15.48L246.87 22L244.50 22L244.50 15.48Z" fill="#FFFFFF" x="172.71"/></svg>